name C:/MyDriveSym/Projects/mobilecap/Data\Session20210830_0002\mocap\ForceDataProcessed\walkingTS3_forces.mot
datacolumns 19
datarows 29
range 1.02700000 1.04100000
endheader 
time	R_ground_force_vx	R_ground_force_vy	R_ground_force_vz	R_ground_force_px	R_ground_force_py	R_ground_force_pz	R_ground_torque_x	R_ground_torque_y	R_ground_torque_z	L_ground_force_vx	L_ground_force_vy	L_ground_force_vz	L_ground_force_px	L_ground_force_py	L_ground_force_pz	L_ground_torque_x	L_ground_torque_y	L_ground_torque_z	
          1.02700000	          0.00000000	          0.00000000	          0.00000000	          1.29100900	          0.00000000	         -0.22914500	          0.00000000	          0.00000000	          0.00000000	         57.58572700	        793.23240800	         58.58622100	          0.99556800	          0.00600000	         -0.39343000	          0.00000000	          4.98860800	          0.00000000	
          1.02750000	          0.00000000	          0.00000000	          0.00000000	          1.29228300	          0.00000000	         -0.22927900	          0.00000000	          0.00000000	          0.00000000	         57.95179800	        794.96137700	         58.72572100	          0.99572600	          0.00600000	         -0.39338800	          0.00000000	          4.97541900	          0.00000000	
          1.02800000	          0.00000000	          0.00000000	          0.00000000	          1.29355800	          0.00000000	         -0.22941400	          0.00000000	          0.00000000	          0.00000000	         58.31818200	        796.68328200	         58.86529600	          0.99588500	          0.00600000	         -0.39334600	          0.00000000	          4.96192600	          0.00000000	
          1.02850000	          0.00000000	          0.00000000	          0.00000000	          1.29483300	          0.00000000	         -0.22954800	          0.00000000	          0.00000000	          0.00000000	         58.68487400	        798.39795800	         59.00492400	          0.99604400	          0.00600000	         -0.39330500	          0.00000000	          4.94813000	          0.00000000	
          1.02900000	          0.00000000	          0.00000000	          0.00000000	          1.29610700	          0.00000000	         -0.22968200	          0.00000000	          0.00000000	          0.00000000	         59.05187100	        800.10523900	         59.14458500	          0.99620300	          0.00600000	         -0.39326500	          0.00000000	          4.93403300	          0.00000000	
          1.02950000	          0.00000000	          0.00000000	          0.00000000	          1.29738200	          0.00000000	         -0.22981600	          0.00000000	          0.00000000	          0.00000000	         59.41916900	        801.80496100	         59.28425700	          0.99636300	          0.00600000	         -0.39322500	          0.00000000	          4.91963500	          0.00000000	
          1.03000000	          0.00000000	          0.00000000	          0.00000000	          1.29865600	          0.00000000	         -0.22995100	          0.00000000	          0.00000000	          0.00000000	         59.78676400	        803.49696200	         59.42391700	          0.99652300	          0.00600000	         -0.39318500	          0.00000000	          4.90493900	          0.00000000	
          1.03050000	          0.00000000	          0.00000000	          0.00000000	          1.29993100	          0.00000000	         -0.23008500	          0.00000000	          0.00000000	          0.00000000	         60.15465300	        805.18107900	         59.56354300	          0.99668400	          0.00600000	         -0.39314700	          0.00000000	          4.88994600	          0.00000000	
          1.03100000	          0.00000000	          0.00000000	          0.00000000	          1.30120500	          0.00000000	         -0.23021900	          0.00000000	          0.00000000	          0.00000000	         60.52283200	        806.85715000	         59.70311200	          0.99684500	          0.00600000	         -0.39310800	          0.00000000	          4.87465700	          0.00000000	
          1.03150000	          0.00000000	          0.00000000	          0.00000000	          1.30248000	          0.00000000	         -0.23035300	          0.00000000	          0.00000000	          0.00000000	         60.89129800	        808.52501400	         59.84260000	          0.99700600	          0.00600000	         -0.39307000	          0.00000000	          4.85907400	          0.00000000	
          1.03200000	          0.00000000	          0.00000000	          0.00000000	          1.30375400	          0.00000000	         -0.23048700	          0.00000000	          0.00000000	          0.00000000	         61.26004700	        810.18451300	         59.98198400	          0.99716800	          0.00600000	         -0.39303300	          0.00000000	          4.84319800	          0.00000000	
          1.03250000	          0.00000000	          0.00000000	          0.00000000	          1.30502900	          0.00000000	         -0.23062200	          0.00000000	          0.00000000	          0.00000000	         61.62907600	        811.83548600	         60.12124000	          0.99733000	          0.00600000	         -0.39299600	          0.00000000	          4.82703300	          0.00000000	
          1.03300000	          0.00000000	          0.00000000	          0.00000000	          1.30630300	          0.00000000	         -0.23075600	          0.00000000	          0.00000000	          0.00000000	         61.99838100	        813.47777700	         60.26034500	          0.99749200	          0.00600000	         -0.39296000	          0.00000000	          4.81057900	          0.00000000	
          1.03350000	          0.00000000	          0.00000000	          0.00000000	          1.30757800	          0.00000000	         -0.23089000	          0.00000000	          0.00000000	          0.00000000	         62.36795800	        815.11122700	         60.39927300	          0.99765500	          0.00600000	         -0.39292400	          0.00000000	          4.79383800	          0.00000000	
          1.03400000	          0.00000000	          0.00000000	          0.00000000	          1.30885200	          0.00000000	         -0.23102400	          0.00000000	          0.00000000	          0.00000000	         62.73780500	        816.73568000	         60.53800000	          0.99781800	          0.00600000	         -0.39288900	          0.00000000	          4.77681300	          0.00000000	
          1.03450000	          0.00000000	          0.00000000	          0.00000000	          1.31012700	          0.00000000	         -0.23115900	          0.00000000	          0.00000000	          0.00000000	         63.10791600	        818.35098100	         60.67650000	          0.99798100	          0.00600000	         -0.39285400	          0.00000000	          4.75950500	          0.00000000	
          1.03500000	          0.00000000	          0.00000000	          0.00000000	          1.31140100	          0.00000000	         -0.23129300	          0.00000000	          0.00000000	          0.00000000	         63.47829000	        819.95697500	         60.81475000	          0.99814500	          0.00600000	         -0.39282000	          0.00000000	          4.74191800	          0.00000000	
          1.03550000	          0.00000000	          0.00000000	          0.00000000	          1.31267600	          0.00000000	         -0.23142700	          0.00000000	          0.00000000	          0.00000000	         63.84892300	        821.55350800	         60.95272300	          0.99830900	          0.00600000	         -0.39278600	          0.00000000	          4.72405300	          0.00000000	
          1.03600000	          0.00000000	          0.00000000	          0.00000000	          1.31395000	          0.00000000	         -0.23156100	          0.00000000	          0.00000000	          0.00000000	         64.21981000	        823.14042800	         61.09039300	          0.99847300	          0.00600000	         -0.39275200	          0.00000000	          4.70591300	          0.00000000	
          1.03650000	          0.00000000	          0.00000000	          0.00000000	          1.31522500	          0.00000000	         -0.23169500	          0.00000000	          0.00000000	          0.00000000	         64.59094800	        824.71758100	         61.22773500	          0.99863800	          0.00600000	         -0.39271900	          0.00000000	          4.68750000	          0.00000000	
          1.03700000	          0.00000000	          0.00000000	          0.00000000	          1.31649900	          0.00000000	         -0.23183000	          0.00000000	          0.00000000	          0.00000000	         64.96233400	        826.28481700	         61.36472200	          0.99880300	          0.00600000	         -0.39268700	          0.00000000	          4.66881700	          0.00000000	
          1.03750000	          0.00000000	          0.00000000	          0.00000000	          1.31777400	          0.00000000	         -0.23196400	          0.00000000	          0.00000000	          0.00000000	         65.33396300	        827.84198400	         61.50132900	          0.99896800	          0.00600000	         -0.39265500	          0.00000000	          4.64986600	          0.00000000	
          1.03800000	          0.00000000	          0.00000000	          0.00000000	          1.31904800	          0.00000000	         -0.23209800	          0.00000000	          0.00000000	          0.00000000	         65.70583200	        829.38893400	         61.63752800	          0.99913400	          0.00600000	         -0.39262300	          0.00000000	          4.63065000	          0.00000000	
          1.03850000	          0.00000000	          0.00000000	          0.00000000	          1.32032300	          0.00000000	         -0.23223200	          0.00000000	          0.00000000	          0.00000000	         66.07793800	        830.92551800	         61.77329400	          0.99929900	          0.00600000	         -0.39259200	          0.00000000	          4.61117300	          0.00000000	
          1.03900000	          0.00000000	          0.00000000	          0.00000000	          1.32159700	          0.00000000	         -0.23236700	          0.00000000	          0.00000000	          0.00000000	         66.45027600	        832.45158600	         61.90859800	          0.99946500	          0.00600000	         -0.39256100	          0.00000000	          4.59143600	          0.00000000	
          1.03950000	          0.00000000	          0.00000000	          0.00000000	          1.32287200	          0.00000000	         -0.23250100	          0.00000000	          0.00000000	          0.00000000	         66.82284200	        833.96699200	         62.04341500	          0.99963100	          0.00600000	         -0.39253100	          0.00000000	          4.57144200	          0.00000000	
          1.04000000	          0.00000000	          0.00000000	          0.00000000	          1.32414600	          0.00000000	         -0.23263500	          0.00000000	          0.00000000	          0.00000000	         67.19563200	        835.47159000	         62.17771700	          0.99979800	          0.00600000	         -0.39250100	          0.00000000	          4.55119600	          0.00000000	
          1.04050000	          0.00000000	          0.00000000	          0.00000000	          1.32542100	          0.00000000	         -0.23276900	          0.00000000	          0.00000000	          0.00000000	         67.56864300	        836.96523400	         62.31147700	          0.99996500	          0.00600000	         -0.39247200	          0.00000000	          4.53069900	          0.00000000	
          1.04100000	          0.00000000	          0.00000000	          0.00000000	          1.32669500	          0.00000000	         -0.23290300	          0.00000000	          0.00000000	          0.00000000	         67.94186900	        838.44777800	         62.44466700	          1.00013200	          0.00600000	         -0.39244300	          0.00000000	          4.50995500	          0.00000000	
